<svg width="1123" height="835" viewBox="0 0 1123 835" fill="none" xmlns="http://www.w3.org/2000/svg">
<path d="M1 341.299C34.8333 337.632 104.5 328.499 112.5 321.299C119.333 325.132 134.6 332.499 141 331.299C147.667 332.799 161.8 336.299 165 338.299C169.667 335.966 180.2 331.299 185 331.299C189.8 331.299 198.333 333.299 202 334.299C209.833 332.466 226.7 328.799 231.5 328.799C237.5 328.799 269.5 320.799 300.5 331.299C306.5 327.799 319.6 320.599 324 319.799C328.4 318.999 328.833 327.132 328.5 331.299C343.333 336.966 377.9 346.899 397.5 341.299H416L427.5 361.799C425.667 368.799 421.4 383.099 419 384.299C416 385.799 404.5 379.299 397.5 381.799C390.5 384.299 388 383.799 383 391.799C379 398.199 382.667 411.799 385 417.799C388.333 424.799 397.3 439.399 406.5 441.799L404 462.799C351.667 469.965 243.9 484.299 231.5 484.299C216 484.299 171.5 478.299 162.5 488.299C153.5 498.299 97.5 489.299 126 462.799C154.5 436.299 310.5 456.299 319.5 434.299C326.7 416.699 249.5 373.299 210 353.799C208 352.465 201.2 349.699 190 349.299C178.8 348.899 171.333 357.465 169 361.799C163.833 362.799 152.6 363.699 149 359.299C145.4 354.899 123.167 348.132 112.5 345.299L13 361.799C7.16667 360.799 -0.4 383.899 16 484.299C20.6667 503.465 37.9 545.799 69.5 561.799C128.167 566.632 247.5 569.699 255.5 543.299C263.5 516.899 228.5 507.965 210 506.799C194.833 505.965 170.8 523.699 196 601.299C221.2 678.899 283.5 633.632 311.5 601.299C324.667 572.299 309 535.299 141 619.299C-27 703.299 50 758.632 109.5 775.799C133 780.465 179.7 780.399 178.5 742.799C177.3 705.199 153 715.465 141 725.299C126 743.299 105 784.299 141 804.299C177 824.299 211.667 800.632 224.5 786.299C229.333 778.299 241.7 763.099 252.5 766.299C263.3 769.499 267.333 812.632 268 833.799H283.5C282.833 821.299 282.3 795.299 285.5 791.299C289.5 786.299 302 785.299 334.5 788.299C410.167 794.965 562.6 809.999 567 816.799C571.4 823.599 568.833 830.965 567 833.799C489.5 819.465 334.5 787.799 334.5 775.799C334.5 763.799 352.167 722.799 361 703.799C373.167 659.799 397.5 566.099 397.5 543.299C397.5 520.499 414.5 432.799 423 391.799C423.333 386.965 427.7 374.799 442.5 364.799C461 352.299 531.5 334.299 533.5 334.299C535.5 334.299 540.5 346.299 540 349.799C539.5 353.299 503 436.799 485.5 453.799C468 470.799 458 457.299 467 453.799C474.2 450.999 482.333 466.965 485.5 475.299C495 497.132 523.1 541.299 559.5 543.299C595.9 545.299 601.333 522.465 599.5 510.799C600.333 484.465 603 429.999 607 422.799C612 413.799 628 399.299 630.5 391.799C633 384.299 635 376.799 630.5 370.799C626.9 365.999 623.333 368.799 622 370.799C623.167 375.465 628 384.199 638 381.799C648 379.399 659.167 351.465 663.5 337.799C665.5 335.632 668.3 330.699 663.5 328.299C658.7 325.899 656.833 331.299 656.5 334.299C660 336.632 667.6 340.599 670 337.799C673 334.299 682 305.299 677.5 298.299C673 291.299 663.5 275.799 648.5 274.799C633.5 273.799 617.5 288.799 615.5 292.299C613.5 295.799 615.5 299.299 615.5 301.799C615.5 304.299 638.5 315.799 647.5 314.799C656.5 313.799 670 310.799 671.5 306.299C673 301.799 662.5 258.299 621 291.799C616 293.466 605.2 297.099 602 298.299C598 299.799 588 307.299 588 308.799C588 310.299 558 309.799 554 323.799C550 337.799 543 345.018 541.5 346.799C540 348.58 532.5 318.299 535 298.299C537.5 278.299 544.5 220.799 590 224.799C595.833 226.132 604.5 239.999 592.5 284.799C588.5 292.632 576.1 301.199 558.5 272.799C558 259.299 561.9 231.799 581.5 229.799C601.1 227.799 595.333 261.965 590 279.299C586.167 291.799 568.2 311.799 527 291.799C475.5 266.799 382 244.299 366 249.799C365 250.465 363.6 252.599 366 255.799C366.5 255.299 371 254.518 370.5 251.799C370.1 249.623 367.333 252.226 366 253.799C365.5 256.299 364.7 261.999 365.5 264.799C366.5 268.299 365 281.299 397.5 298.299C405.667 302.466 423.2 310.699 428 310.299C432.8 309.899 434 306.465 434 304.799C433.333 302.965 431 300.399 427 304.799C423 309.199 438.667 318.299 447 322.299C458 327.632 480.6 338.199 483 337.799C484.5 337.965 488.1 337.599 490.5 334.799C493.5 331.299 489.5 329.299 487.5 330.299C485.5 331.299 482 334.304 481 341.799C480 349.294 451.5 354.799 447 353.299C442.5 351.799 379 319.38 381.5 304.799C384 290.217 384 291.799 389 289.299C394 286.799 675 90.7988 656.5 41.7988C641.7 2.59881 597 6.79881 576.5 13.7988C568.667 16.7988 551.7 27.5988 546.5 46.7988C541.3 65.9988 544.333 88.1321 546.5 96.7988C555.167 98.9993 571.1 95.68 565.5 64.7988C559.9 33.9177 529.5 11.5983 515 4.29882C505.667 -0.201184 483 -3.60118 467 18.7988C447 46.7988 549.5 182.799 554 188.799C558.5 194.799 617 244.799 704.5 244.299C792 243.799 784.5 223.299 782.5 212.299C780.5 201.299 755.5 184.799 738 207.299C720.5 229.799 728 292.299 730.5 292.299C733 292.299 737.5 344.799 723.5 353.299C709.5 361.799 680 366.799 677.5 364.299C675 361.799 663.5 346.799 677.5 344.299C691.5 341.799 683 369.799 686 375.799C689 381.799 698.5 399.299 704.5 402.299C709.3 404.699 715.167 419.632 717.5 426.799C722.5 436.632 733.1 457.999 735.5 464.799C738.5 473.299 743.5 479.799 747 478.799C750.5 477.799 754.5 470.799 749.5 468.799C744.5 466.799 745 485.799 743.5 486.799C742 487.799 742.5 502.799 723.5 498.799C704.5 494.799 705.5 463.799 700 457.799C694.5 451.799 653.5 391.799 648.5 391.799C643.5 391.799 645.5 408.799 651 407.299C655.4 406.099 661.167 399.465 663.5 396.299C663 392.465 660.9 386.199 656.5 391.799C651 398.799 630 418.799 621 422.799C613.8 425.999 608.667 444.799 607 453.799C608.667 475.299 611 519.399 607 523.799C605.333 531.965 602 550.299 602 558.299C602 568.299 586.5 638.799 586 640.799C585.5 642.799 572 692.299 559.5 695.799C547 699.299 536 695.799 541.5 684.799C547 673.799 580.5 710.299 588 720.799C595.5 731.299 579 743.299 573 734.299C567 725.299 588.5 708.299 594 708.299C598.4 708.299 599.5 735.965 599.5 749.799C592.667 751.632 577.8 756.199 573 759.799C567 764.299 548.5 781.799 554 790.299C559.5 798.799 609 797.799 615.5 776.299C622 754.799 639 725.299 630.5 716.799C622 708.299 607 695.799 607 708.299C607 718.299 612 723.132 614.5 724.299C619.667 720.799 634 710.899 650 699.299C666 687.699 688.667 687.132 698 688.299C702.333 684.465 711 674.799 711 666.799C711 658.799 719.333 659.132 723.5 660.299C732.833 667.632 753.9 680.099 763.5 671.299C775.5 660.299 724 568.799 727.5 543.299C730.3 522.899 726 513.132 723.5 510.799C712.833 508.965 694.1 507.899 704.5 518.299C717.5 531.299 756 591.299 801 585.799C846 580.299 931 575.799 956.5 543.299C982 510.799 995.5 458.299 995 455.299C994.5 452.299 999 414.299 970 410.299C946.8 407.099 873.333 408.965 839.5 410.299C819.167 412.965 777 417.499 771 414.299C763.5 410.299 741 365.799 752 357.799C760.8 351.399 778.333 355.132 786 357.799C795.167 360.299 815.1 364.799 821.5 362.799C829.5 360.299 891 337.799 904 337.799C917 337.799 957 330.799 970 344.299C980.4 355.099 1028 342.132 1050.5 334.299C1062 330.299 1086.5 323.499 1092.5 328.299C1100 334.299 1135 289.799 1116 279.299C1097 268.799 1082.5 294.799 1087.5 298.299C1092.5 301.799 1111.5 312.537 1116 298.299C1120.5 284.061 1120 263.799 1112 259.299C1104 254.799 1060.5 252.299 1053 255.799C1045.5 259.299 1011 259.299 995 259.299C979 259.299 962 239.299 975 230.299C988 221.299 1021.5 216.299 1019.5 230.299C1017.9 241.499 1002.5 244.299 995 244.299C986.833 230.799 975.4 202.399 995 196.799C1014.6 191.199 1041.83 194.465 1053 196.799C1067.17 203.799 1098.8 215.699 1112 207.299" stroke="black" stroke-width="2"/>
</svg>
