<svg width="1124" height="837" viewBox="0 0 1124 837" fill="none" xmlns="http://www.w3.org/2000/svg">
<path d="M1 342.299C34.8333 338.632 104.5 329.499 112.5 322.299C119.333 326.132 134.6 333.499 141 332.299C147.667 333.799 161.8 337.299 165 339.299C169.667 336.966 180.2 332.299 185 332.299C189.8 332.299 198.333 334.299 202 335.299C209.833 333.466 226.7 329.799 231.5 329.799C237.5 329.799 269.5 321.799 300.5 332.299C306.5 328.799 319.6 321.599 324 320.799C328.4 319.999 328.833 328.132 328.5 332.299C343.333 337.966 377.9 347.899 397.5 342.299H416L427.5 362.799C425.667 369.799 421.4 384.099 419 385.299C416 386.799 404.5 380.299 397.5 382.799C390.5 385.299 388 384.799 383 392.799C379 399.199 382.667 412.799 385 418.799C388.333 425.799 397.3 440.399 406.5 442.799L404 463.799C351.667 470.965 243.9 485.299 231.5 485.299C216 485.299 171.5 479.299 162.5 489.299C153.5 499.299 97.5 490.299 126 463.799C154.5 437.299 310.5 457.299 319.5 435.299C326.7 417.699 249.5 374.299 210 354.799C208 353.465 201.2 350.699 190 350.299C178.8 349.899 171.333 358.465 169 362.799C163.833 363.799 152.6 364.699 149 360.299C145.4 355.899 123.167 349.132 112.5 346.299L13 362.799C7.16667 361.799 -0.4 384.899 16 485.299C20.6667 504.465 37.9 546.799 69.5 562.799C128.167 567.632 247.5 570.699 255.5 544.299C263.5 517.899 228.5 508.965 210 507.799C194.833 506.965 170.8 524.699 196 602.299C221.2 679.899 283.5 634.632 311.5 602.299C324.667 573.299 309 536.299 141 620.299C-27 704.299 50 759.632 109.5 776.799C133 781.465 179.7 781.399 178.5 743.799C177.3 706.199 153 716.465 141 726.299C126 744.299 105 785.299 141 805.299C177 825.299 211.667 801.632 224.5 787.299C229.333 779.299 241.7 764.099 252.5 767.299C263.3 770.499 267.333 813.632 268 834.799H283.5C282.833 822.299 282.3 796.299 285.5 792.299C289.5 787.299 302 786.299 334.5 789.299C410.167 795.965 562.6 810.999 567 817.799C571.4 824.599 568.833 831.965 567 834.799C489.5 820.465 334.5 788.799 334.5 776.799C334.5 764.799 352.167 723.799 361 704.799C373.167 660.799 397.5 567.099 397.5 544.299C397.5 521.499 414.5 433.799 423 392.799C423.333 387.965 427.7 375.799 442.5 365.799C461 353.299 531.5 335.299 533.5 335.299C535.5 335.299 540.5 347.299 540 350.799C539.5 354.299 503 437.799 485.5 454.799C468 471.799 458 458.299 467 454.799C474.2 451.999 482.333 467.965 485.5 476.299C495 498.132 523.1 542.299 559.5 544.299C595.9 546.299 601.333 523.465 599.5 511.799C600.333 485.465 603 430.999 607 423.799C612 414.799 628 400.299 630.5 392.799C633 385.299 635 377.799 630.5 371.799C626.9 366.999 623.333 369.799 622 371.799C623.167 376.465 628 385.199 638 382.799C648 380.399 659.167 352.465 663.5 338.799C665.5 336.632 668.3 331.699 663.5 329.299C658.7 326.899 656.833 332.299 656.5 335.299C660 337.632 667.6 341.599 670 338.799C673 335.299 682 306.299 677.5 299.299C673 292.299 663.5 276.799 648.5 275.799C633.5 274.799 617.5 289.799 615.5 293.299C613.5 296.799 615.5 300.299 615.5 302.799C615.5 305.299 638.5 316.799 647.5 315.799C656.5 314.799 670 311.799 671.5 307.299C673 302.799 662.5 259.299 621 292.799C616 294.466 605.2 298.099 602 299.299C598 300.799 588 308.299 588 309.799C588 311.299 558 310.799 554 324.799C550 338.799 543 346.018 541.5 347.799C540 349.58 532.5 319.299 535 299.299C537.5 279.299 544.5 221.799 590 225.799C595.833 227.132 604.5 240.999 592.5 285.799C588.5 293.632 576.1 302.199 558.5 273.799C558 260.299 561.9 232.799 581.5 230.799C601.1 228.799 595.333 262.965 590 280.299C586.167 292.799 568.2 312.799 527 292.799C475.5 267.799 382 245.299 366 250.799C365 251.465 363.6 253.599 366 256.799C366.5 256.299 371 255.518 370.5 252.799C370.1 250.623 367.333 253.226 366 254.799C365.5 257.299 364.7 262.999 365.5 265.799C366.5 269.299 365 282.299 397.5 299.299C405.667 303.466 423.2 311.699 428 311.299C432.8 310.899 434 307.465 434 305.799C433.333 303.965 431 301.399 427 305.799C423 310.199 438.667 319.299 447 323.299C458 328.632 480.6 339.199 483 338.799C484.5 338.965 488.1 338.599 490.5 335.799C493.5 332.299 489.5 330.299 487.5 331.299C485.5 332.299 482 335.304 481 342.799C480 350.294 451.5 355.799 447 354.299C442.5 352.799 379 320.38 381.5 305.799C384 291.217 384 292.799 389 290.299C394 287.799 675 91.7988 656.5 42.7988C641.7 3.59881 597 7.79881 576.5 14.7988C568.667 17.7988 551.7 28.5988 546.5 47.7988C541.3 66.9988 544.333 89.1321 546.5 97.7988C555.167 99.9993 571.1 96.68 565.5 65.7988C559.9 34.9177 529.5 12.5983 515 5.29882C505.667 0.798816 483 -2.60118 467 19.7988C447 47.7988 549.5 183.799 554 189.799C558.5 195.799 617 245.799 704.5 245.299C792 244.799 784.5 224.299 782.5 213.299C780.5 202.299 755.5 185.799 738 208.299C720.5 230.799 728 293.299 730.5 293.299C733 293.299 737.5 345.799 723.5 354.299C709.5 362.799 680 367.799 677.5 365.299C675 362.799 663.5 347.799 677.5 345.299C691.5 342.799 683 370.799 686 376.799C689 382.799 698.5 400.299 704.5 403.299C709.3 405.699 715.167 420.632 717.5 427.799C722.5 437.632 733.1 458.999 735.5 465.799C738.5 474.299 743.5 480.799 747 479.799C750.5 478.799 754.5 471.799 749.5 469.799C744.5 467.799 745 486.799 743.5 487.799C742 488.799 742.5 503.799 723.5 499.799C704.5 495.799 705.5 464.799 700 458.799C694.5 452.799 653.5 392.799 648.5 392.799C643.5 392.799 645.5 409.799 651 408.299C655.4 407.099 661.167 400.465 663.5 397.299C663 393.465 660.9 387.199 656.5 392.799C651 399.799 630 419.799 621 423.799C613.8 426.999 608.667 445.799 607 454.799C608.667 476.299 611 520.399 607 524.799C605.333 532.965 602 551.299 602 559.299C602 569.299 586.5 639.799 586 641.799C585.5 643.799 572 693.299 559.5 696.799C547 700.299 536 696.799 541.5 685.799C547 674.799 580.5 711.299 588 721.799C595.5 732.299 579 744.299 573 735.299C567 726.299 588.5 709.299 594 709.299C598.4 709.299 599.5 736.965 599.5 750.799C592.667 752.632 577.8 757.199 573 760.799C567 765.299 548.5 782.799 554 791.299C559.5 799.799 609 798.799 615.5 777.299C622 755.799 639 726.299 630.5 717.799C622 709.299 607 696.799 607 709.299C607 719.299 612 724.132 614.5 725.299C619.667 721.799 634 711.899 650 700.299C666 688.699 688.667 688.132 698 689.299C702.333 685.465 711 675.799 711 667.799C711 659.799 719.333 660.132 723.5 661.299C732.833 668.632 753.9 681.099 763.5 672.299C775.5 661.299 724 569.799 727.5 544.299C730.3 523.899 726 514.132 723.5 511.799C712.833 509.965 694.1 508.899 704.5 519.299C717.5 532.299 756 592.299 801 586.799C846 581.299 931 576.799 956.5 544.299C982 511.799 995.5 459.299 995 456.299C994.5 453.299 999 415.299 970 411.299C946.8 408.099 873.333 409.965 839.5 411.299C819.167 413.965 777 418.499 771 415.299C763.5 411.299 741 366.799 752 358.799C760.8 352.399 778.333 356.132 786 358.799C795.167 361.299 815.1 365.799 821.5 363.799C829.5 361.299 891 338.799 904 338.799C917 338.799 957 331.799 970 345.299C980.4 356.099 1028 343.132 1050.5 335.299C1062 331.299 1086.5 324.499 1092.5 329.299C1100 335.299 1135 290.799 1116 280.299C1097 269.799 1082.5 295.799 1087.5 299.299C1092.5 302.799 1111.5 313.537 1116 299.299C1120.5 285.061 1120 264.799 1112 260.299C1104 255.799 1060.5 253.299 1053 256.799C1045.5 260.299 1011 260.299 995 260.299C979 260.299 962 240.299 975 231.299C988 222.299 1021.5 217.299 1019.5 231.299C1017.9 242.499 1002.5 245.299 995 245.299C986.833 231.799 975.4 203.399 995 197.799C1014.6 192.199 1041.83 195.465 1053 197.799C1067.17 204.799 1098.8 216.699 1112 208.299" stroke="black" stroke-width="3"/>
</svg>
