<svg width="1130" height="735" viewBox="0 0 1130 735" fill="none" xmlns="http://www.w3.org/2000/svg">
<path d="M1 217.96C26.3333 227.126 88.9 233.56 136.5 185.96C196 126.46 220.5 188.96 218.5 217.96C216.5 246.96 199.5 362.96 136.5 393.46C86.1 417.86 87.1667 459.96 94 477.96C102.333 499.793 133.4 541.86 191 535.46C248.6 529.06 257.667 568.126 255 588.46C250.333 617.626 243.8 677.26 255 682.46C266.2 687.66 281 676.293 287 669.96C286.833 667.626 286.8 662.76 288 661.96C289.5 660.96 309 657.96 338 661.96C407.333 668.126 547.2 681.56 552 685.96C558 691.46 545 710.96 541.5 713.96C538 716.96 300.5 743.96 288 728.96C275.5 713.96 289.5 645.96 294 642.96C297.6 640.56 322.167 647.96 334 651.96C345.833 615.46 371.3 540.76 378.5 533.96C385.7 527.16 398.833 425.46 404.5 375.46C409.333 352.126 419 305.06 419 303.46C419 301.46 426.5 273.46 425 268.46C423.8 264.46 407.167 263.793 399 263.96C393 265.126 383.7 271.36 394.5 286.96C405.3 302.56 419.333 304.46 425 303.46C428.333 298.46 434 281.46 430 253.46C430 250.293 432.3 242.76 441.5 237.96C453 231.96 535 211.46 537.5 209.96C540 208.46 502 312.46 484.5 322.46C467 332.46 526.5 406.46 559.5 390.96C585.9 378.56 599.5 359.793 603 351.96C605.667 329.626 613.2 282.86 622 274.46C633 263.96 693.5 197.96 677.5 164.96C664.7 138.56 637.833 149.96 626 158.96C618.667 163.793 613 176.76 649 189.96C656.333 189.126 670.7 182.96 669.5 164.96C668 142.46 628.5 159.46 611 167.96C593.5 176.46 569.5 186.46 553.5 203.96C537.5 221.46 500.5 317.959 498 322.46C495.5 326.96 467.5 374.46 506.5 402.46C537.7 424.86 581.833 400.793 600 385.96C601.167 427.46 599.1 516.26 581.5 539.46C559.5 568.46 538.5 577.96 533.5 578.96C528.5 579.96 508 568.46 526 557.46C540.4 548.66 566.333 575.793 577.5 590.46C579 598.46 575 619.36 547 638.96L533.5 670.96L556.5 672.46C557.833 661.626 562.6 638.86 571 634.46C579.4 630.06 590.833 628.293 595.5 627.96C611.167 609.96 646 573.66 660 572.46C674 571.26 693.833 561.96 702 557.46C715.333 549.46 744.3 534.66 753.5 539.46C765 545.46 810 539.96 822.5 561.46C835 582.96 890 678.46 884 701.96C879.2 720.76 673.333 715.46 571 710.46C564.667 709.46 557.9 700.16 581.5 670.96C605.1 641.76 600.667 613.46 595.5 602.96C591.833 596.46 584.6 581.26 585 572.46C585.5 561.46 631 459.46 615.5 390.96C603.1 336.16 632.667 286.46 649 268.46C668.833 289.96 709.2 336.06 712 348.46C715.5 363.96 724.5 376.96 739 367.96C753.5 358.96 709.5 261.96 691.5 253.46C662 226.46 603 169.76 603 158.96C603 145.46 606 103.46 600 100.96C594 98.4596 583 88.9596 563.5 117.96C544 146.96 586 170.96 588.5 164.96C591 158.96 602.5 131.46 595.5 109.96C588.5 88.4596 560 110.96 553.5 117.96C547 124.96 534 169.96 537.5 189.96C540.3 205.96 549.333 194.293 553.5 186.46C563.5 181.793 552.8 163.86 430 129.46C412.833 125.126 376.5 118.36 368.5 125.96C358.5 135.46 352 160.46 425 179.46C449.333 188.653 498 208.423 498 213.96C498 220.88 454.5 227.46 448 226.46C441.5 225.46 340.935 157.608 339 146C333.5 113 343.5 87.4596 462.5 24.4596C557.7 -25.9404 673.833 20.1262 720 49.4596C762 75.7929 842.6 147.86 829 225.46C812 322.46 729 382.96 731 412.96C733 442.96 753.5 507.96 758.5 512.46C763.5 516.96 797 573.96 871.5 484.96C946 395.96 931.5 341.46 951 322.46C970.5 303.46 975.5 270.46 1042.5 286.96C1096.1 300.16 1122.17 276.793 1128.5 263.46" stroke="black" stroke-width="3"/>
</svg>
