<svg width="400" height="735" viewBox="0 0 400 735" fill="none" xmlns="http://www.w3.org/2000/svg">
<path d="M399 184C398 182.333 395.7 179.2 394.5 180C393 181 392.5 182 392 181C391.5 180 389.5 172 387.5 172.5C385.5 173 384 174.5 381 174C378 173.5 372 170.5 370.5 169.5C369 168.5 364.5 156.5 364.5 152C365.667 145.167 368.5 130.6 370.5 127C373 122.5 380 91 378 76C376 61 370.5 38 354 22.5C348 17.5 331.9 6.7 315.5 3.5C295 -0.500003 266 3 254.5 15.5C251.333 18.3333 245 24.2 245 25C245 26 255.5 29 256.5 30.5C257.3 31.7 288.5 49 304 57.5C311.333 62 326.5 71.6 328.5 74C331 77 341.5 100 341.5 102.5C341.5 105 344.5 104.5 344.5 111C344.5 117.5 341.5 133 339 135C338.5 136 335.9 139.4 329.5 145C329 146 328.5 145 328 147.5C327.5 150 324 152 322.5 152C321 152 313.5 144 316.5 138.5C318.667 137.333 323.4 134.4 325 132C327 129 328.5 129.5 329 129C329.5 128.5 338.5 125.5 336 120.5C333.5 115.5 329 115 328 116C327.2 116.8 321.667 116.333 319 116C320 117.167 321.8 119.7 321 120.5C320 121.5 319.5 124.5 316.5 124C314.1 123.6 316.833 127.5 318.5 129.5C317.167 131.333 314 134.2 312 131C309.5 127 313 111.5 313.5 110C314 108.5 319.5 95 329.5 97.5C327.833 91 323.4 77.6 319 76C314.6 74.4 303.5 69 298.5 66.5L253.5 40C249.667 46.3333 241.3 59.4 238.5 61C235 63 229 65.5 226 64.5C223 63.5 221.5 57 221.5 55.5C221.667 53.3333 222.7 48.4 225.5 46C229.667 41 238.3 30.4 239.5 28C240.7 25.6 232.333 32.3333 228 36C225.667 38.3333 220.7 44.4 219.5 50C218.667 51.8333 215.9 56.2 211.5 59C210 60.3333 206.8 63.9 206 67.5C205 71.5 202.5 80.6 200.5 85C198 90.5 209.5 94.5 210.5 98.5C211.5 102.5 235.5 99 238.5 94.5C240.167 93.3333 243.9 89.7 245.5 84.5C247.1 79.3 244.5 80.3333 243 81.5C243.333 82.1667 245.4 84.3 251 87.5C256.6 90.7 255.667 94.5 254.5 96C252.833 98.5 250.5 104.1 254.5 106.5C259.5 109.5 273 108 277 111C278.167 112.333 280.8 116.4 282 122C285.167 131.333 291.6 151.5 292 157.5C292.4 163.5 297.833 174.667 300.5 179.5C301 183 299.5 191.5 289.5 197.5C283.5 200.5 269.8 207 263 209C256.2 211 249.5 214.833 247 216.5C245.667 217 242.9 216.7 242.5 211.5C242.1 206.3 237.667 203 235.5 202C239.5 199.5 247.8 194 249 192C250.2 190 243.833 189.833 240.5 190C237.833 190 232.3 190.2 231.5 191C230.5 192 229.5 196.5 230.5 197.5C231.5 198.5 233 200.5 234.5 198.5C235.7 196.9 243.667 191.5 247.5 189C242.333 187.667 231.7 185.1 230.5 185.5C229 186 226.5 186 227 187C227.5 188 227.5 192 229.5 190C231.5 188 231 184 229.5 182.5C228 181 226 175.5 223.5 175.5C221 175.5 219.5 176 219 174.5C218.5 173 223 171.5 225 172C227 172.5 226 175.5 224 176.5C222 177.5 211.5 177.5 210 172.5C208.5 167.5 212 154.5 212.5 153C213 151.5 216 140 217 139.5C218 139 217.5 136.5 214.5 131.5C211.5 126.5 207.5 134.5 210.5 134C213.5 133.5 217 128.5 218 127.5C219 126.5 222 124.5 229 123.5C234.6 122.7 246.667 124.833 252 126C254.833 126.667 252.7 128.7 221.5 131.5C220.167 131.167 218.1 130.3 220.5 129.5C223.5 128.5 228.5 132.5 229 134C229.5 135.5 231 135.5 233 135.5C234.6 135.5 244.333 135.5 249 135.5C250 137.333 249.2 141.6 238 144C224 147 230.5 140 233 139.5C235.5 139 243 137.5 244 138C245 138.5 221 176.5 207.5 141.5C204.667 133.667 200.4 115.7 206 106.5C213 95 212 119.5 209 122C206 124.5 170.5 147.5 151 112C131.5 76.5 172 73.5 170.5 100.5C167.167 101.5 161 101 163 91C165.5 78.5 172.5 76 176.5 77.5C180.5 79 187.5 82.5 189 94.5C190.5 106.5 178.5 132 169.5 139.5C164.667 144.167 152.4 153.6 142 154C129 154.5 131 149.5 131 148C131 146.5 140 141.5 132 141.5C124 141.5 123 145.5 120 141.5C117 137.5 126 125.5 122 127C118 128.5 113.5 136 110 135.5C106.5 135 103 129 103 127.5C103 126.3 100.667 128 99.5 129C97 130.833 92.1 135.4 92.5 139C92.9 142.6 85.6667 144.167 82 144.5C79.5 145.667 74.2 150 73 158C71.8 166 66.5 162.333 64 159.5C61.8333 157.5 56.9 156.1 54.5 166.5C54.3333 167.167 52.8 168.4 48 168C43.2 167.6 41.3333 171.5 41 173.5C40.6667 174.5 39.5 176.6 37.5 177C35.5 177.4 37 181.5 38 183.5C38.6667 187.167 37.4 195.3 27 198.5C16.6 201.7 19.6667 213.833 22.5 219.5C21 221.5 18.9 226.7 22.5 231.5C26.1 236.3 17.6667 244.833 13 248.5C7.83333 252 -1.5 260.4 2.5 266C7.5 273 19 275 18.5 286C18 297 19.5 312 15.5 316C11.5 320 10.5 326.5 13 328.5C15.5 330.5 24 343.5 18.5 353C13 362.5 17.5 391.5 25 392C32.5 392.5 43.5 386.5 42.5 382C41.5 377.5 36 374 32 378C28 382 37 407.5 42.5 406.5C48 405.5 62.5 402 59 392C55.5 382 50 392 49 392C48 392 45.5 412 56.5 417C67.5 422 83.5 413 83.5 406.5C83.5 400 78.5 393 74 397C69.5 401 62.5 415.5 76 425.5C89.5 435.5 124 421.5 126 414C128 406.5 91.5 403.5 97 382C102.5 360.5 125 379 123.5 388C122 397 80.5 403 86.5 378C92.5 353 133.5 368 139 353C144.5 338 143.5 322 139 319C134.5 316 145.5 305.5 147.5 299.5C149.5 293.5 146 276 144 275.5C142 275 149 257 142 250.5C136.4 245.3 141.333 234.333 144.5 229.5C145 225.833 143.8 217.9 135 215.5C124 212.5 140 200.5 140.5 198.5C141 196.5 143.5 191 140.5 189L148.5 175.5L155.5 180C153.167 181.333 148.5 184.6 148.5 187C148.5 189.4 155.833 186.333 159.5 184.5C159.833 183.833 160.3 182.5 159.5 182.5C158.7 182.5 158.5 183.167 158.5 183.5C159.167 184.167 160.9 185.6 162.5 186C164.1 186.4 166.5 185.167 167.5 184.5C162.5 178.5 151.7 166.7 148.5 167.5C144.5 168.5 167 189.5 170 187C173 184.5 174.5 182 171 178C167.5 174 160.5 164 156.5 164C153.3 164 147.167 167.333 144.5 169L139.5 181C137.333 178.5 133 172.9 133 170.5C133 167.5 131 162.465 133 158C135 153.535 146.5 157 149.5 160.5C152.5 164 171.5 175.5 172 175.5C172.5 175.5 188.5 175 190.5 177C192.5 179 192 178.5 192 188.5C191.833 189.833 190.3 192.2 185.5 191C180.7 189.8 186.167 186.5 189.5 185C190.333 184.667 191.9 185.8 191.5 193L195 194C196.333 194.333 199 195.4 199 197C199 199 191 209 186.5 210.5C182 212 192 196.687 194 195.5C196 194.313 199 201 196.5 204C194 207 192 203.5 192.5 202.5C193 201.5 204 200 206 206C208 212 188.5 212.5 187.5 211.5C186.5 210.5 206 213.5 206 213.5C206.333 213.667 207.1 214.6 207.5 217C207.667 217.333 210 218.1 218 218.5C228 219 224 234 223.5 234.5C223 235 220.5 241.5 212.5 245C208.833 247.833 200.5 255.5 196.5 263.5C191.5 273.5 182 285.5 183 298C184 310.5 181 327 179 330C177.4 332.4 181 398.667 183 431.5C185.167 457 185.3 511.7 168.5 526.5C147.5 545 123.5 546.5 101.5 533C79.5 519.5 86.2556 496.138 90.5 492.5C94 489.5 100 477 144.5 495.5C189 514 184.5 570 179 583C173.5 596 147.5 684.5 135.5 695C123.5 705.5 97 703 97 679C97 655 138.001 653.467 139 653.5C154 654 201.5 672.5 168.5 734.5" stroke="black" stroke-width="2"/>
</svg>
