<svg width="72" height="812" viewBox="0 0 72 812" fill="none" xmlns="http://www.w3.org/2000/svg">
<path id="Vector 7" d="M39.5 0.5V208.35C38 205.067 34.6 199.8 33 205C32 208.167 31.3 215.9 36.5 221.5C34 215.567 27.9 204.631 23.5 208.35C22.1667 209.567 22.6 214.3 35 223.5C29.6667 219 18.4 211.5 16 217.5C16 219.333 19.7 223.6 34.5 226C28.6667 224 16.6 221.5 15 227.5C14.6667 229.833 18.2 233.3 35 228.5C28.1667 229.333 15.1 232 17.5 236C18.5 238 23.6 239.6 36 230C31.3333 233.833 23 242.5 27 246.5C31 250.5 36.3333 238.167 38.5 231.5C35.3333 236.333 30.6 246.7 37 249.5C39.3333 250.833 43.4 249.2 41 232C41.1667 236.667 43.4 246.2 51 247C53 246.5 54.2 242.5 43 230.5C47.5 234.167 57.4 240.9 61 238.5C62.1667 236.648 60.7 232.054 45.5 228.5C45 228 43.8 227.5 43 229.5C43 230.333 42.4 231.9 40 231.5C37 231 35 228.5 35 227.5C35 226.5 34.5 223.5 36 222.5C37.5 221.5 38 221 42 222.5C42.8333 223 44.5 224.5 44.5 226.5C50.3333 225 62.6 223.3 65 228.5C68 235 43 270 40 271C38.5 272.167 35.2 274.5 34 274.5C32.5 274.5 28 272 33 271C38 270 61.5 258 69 264.5C76.5 271 45.5 275.5 39 275.5C38.5 275.333 37.7 274.8 38.5 274C39.5 273 44 274.5 41.5 277C39.5 279 39 280.5 39 281V357C47.5 358.833 63.6 364.8 60 374C59.5 375.833 53.1 379.3 31.5 378.5C4.49999 377.5 7.49999 377 2.99999 380.5C1.83333 382 0.699995 385.8 5.49999 389C9.33333 391.333 21.5 396.1 39.5 396.5C40.8333 396.5 43.6 396.1 44 394.5C44.4 392.9 41.8333 392.167 40.5 392C39.5 392 37.7 392.3 38.5 393.5C39.3 394.7 39.1667 410.333 39 418V483H36.5C36 483.5 34.8 484.5 34 484.5C33.2 484.5 33.3333 485.5 33.5 486V488.5C32.8333 489 31.5 490.1 31.5 490.5C31.5 491 31.5 492.5 33.5 493V494C32.6667 494.5 31.5 495.9 33.5 497.5V499C32.5 499.333 31.1 500.4 33.5 502H34V503.5C34.3333 503.833 35 504.6 35 505C35 505.4 34.3333 537.167 34 553C30.3333 553 22.3 554.9 19.5 562.5C18 565.667 16.3 573.9 21.5 581.5C21.6667 581.667 21.6 582.8 20 586C18 590 5 604 17.5 618C20.5 621.5 29.3 627.8 40.5 625L39 575C37.6667 574.5 35.8 573.2 39 572C39.6667 571.833 41 572.3 41 575.5C41 576.167 40.8 577.6 40 578C39 578.5 35.5 578 35 577C34.5 576 34 576 36.5 570.5C38.5 566.1 42 570 43.5 572.5C44.3333 574.167 45.4 577.8 43 579C40 580.5 35.5 580 34.5 579.5C33.5 579 31.5 577.5 31.5 574.5C31.5 571.5 33.5 567.5 36 566.5C38.5 565.5 42 566 43 567C44 568 48 571 47.5 573.5L58.5 574C57.5 575.833 55.7 579.9 56.5 581.5C56.6667 582.5 57.4 585 59 587C61 589.5 69 604.5 64 615C62.8333 618.667 56.4 627 40 631V812" stroke="black" stroke-width="2"/>
</svg>
