<svg width="70" height="812" viewBox="0 0 70 812" fill="none" xmlns="http://www.w3.org/2000/svg">
<path id="Vector 7" d="M38.5 0.5V208.35C37 205.067 33.6 199.8 32 205C31 208.167 30.3 215.9 35.5 221.5C33 215.567 26.9 204.631 22.5 208.35C21.1667 209.567 21.6 214.3 34 223.5C28.6667 219 17.4 211.5 15 217.5C15 219.333 18.7 223.6 33.5 226C27.6667 224 15.6 221.5 14 227.5C13.6667 229.833 17.2 233.3 34 228.5C27.1667 229.333 14.1 232 16.5 236C17.5 238 22.6 239.6 35 230C30.3333 233.833 22 242.5 26 246.5C30 250.5 35.3333 238.167 37.5 231.5C34.3333 236.333 29.6 246.7 36 249.5C38.3333 250.833 42.4 249.2 40 232C40.1667 236.667 42.4 246.2 50 247C52 246.5 53.2 242.5 42 230.5C46.5 234.167 56.4 240.9 60 238.5C61.1667 236.648 59.7 232.054 44.5 228.5C44 228 42.8 227.5 42 229.5C42 230.333 41.4 231.9 39 231.5C36 231 34 228.5 34 227.5C34 226.5 33.5 223.5 35 222.5C36.5 221.5 37 221 41 222.5C41.8333 223 43.5 224.5 43.5 226.5C49.3333 225 61.6 223.3 64 228.5C67 235 42 270 39 271C37.5 272.167 34.2 274.5 33 274.5C31.5 274.5 27 272 32 271C37 270 60.5 258 68 264.5C75.5 271 44.5 275.5 38 275.5C37.5 275.333 36.7 274.8 37.5 274C38.5 273 43 274.5 40.5 277C38.5 279 38 280.5 38 281V357C46.5 358.833 62.6 364.8 59 374C58.5 375.833 52.1 379.3 30.5 378.5C3.49999 377.5 6.49999 377 1.99999 380.5C0.833328 382 -0.300005 385.8 4.49999 389C8.33333 391.333 20.5 396.1 38.5 396.5C39.8333 396.5 42.6 396.1 43 394.5C43.4 392.9 40.8333 392.167 39.5 392C38.5 392 36.7 392.3 37.5 393.5C38.3 394.7 38.1667 410.333 38 418V483H35.5C35 483.5 33.8 484.5 33 484.5C32.2 484.5 32.3333 485.5 32.5 486V488.5C31.8333 489 30.5 490.1 30.5 490.5C30.5 491 30.5 492.5 32.5 493V494C31.6667 494.5 30.5 495.9 32.5 497.5V499C31.5 499.333 30.1 500.4 32.5 502H33V503.5C33.3333 503.833 34 504.6 34 505C34 505.4 33.3333 537.167 33 553C29.3333 553 21.3 554.9 18.5 562.5C17 565.667 15.3 573.9 20.5 581.5C20.6667 581.667 20.6 582.8 19 586C17 590 4 604 16.5 618C19.5 621.5 28.3 627.8 39.5 625L38 575C36.6667 574.5 34.8 573.2 38 572C38.6667 571.833 40 572.3 40 575.5C40 576.167 39.8 577.6 39 578C38 578.5 34.5 578 34 577C33.5 576 33 576 35.5 570.5C37.5 566.1 41 570 42.5 572.5C43.3333 574.167 44.4 577.8 42 579C39 580.5 34.5 580 33.5 579.5C32.5 579 30.5 577.5 30.5 574.5C30.5 571.5 32.5 567.5 35 566.5C37.5 565.5 41 566 42 567C43 568 47 571 46.5 573.5L57.5 574C56.5 575.833 54.7 579.9 55.5 581.5C55.6667 582.5 56.4 585 58 587C60 589.5 68 604.5 63 615C61.8333 618.667 55.4 627 39 631V812" stroke="black"/>
</svg>
